# xmcd
#
# Track frame offsets:
#   150
#   20638
#   77059
#   88727
#   101764
#   117636
#   139562
#   158663
#   182521
#   201285
#   221607
#   235009
#   247585
#
# Disc length: 3547 seconds
#
# Revision: 0
# Processed by: cddbd v1.4PL0 Copyright (c) Steve Scherf et al.
# Submitted via: uFREEDB 1.6.0
#
DISCID=a60dd90d
DTITLE=Ricardo Arjona - Vivo
DYEAR=1999
DGENRE=Alternative
TTITLE0=Aqui estoy
TTITLE1=Ella y el/Historia del taxi
TTITLE2=Quien diria
TTITLE3=Se nos muere el amor
TTITLE4=Realmente no estoy tan solo
TTITLE5=Si el norte fuera el sur
TTITLE6=Historia
TTITLE7=Señora de las cuatro decadas
TTITLE8=Desde la calle
TTITLE9=tarde
TTITLE10=Me enseñaste
TTITLE11=Tu reputacion
TTITLE12=La sucursal del cielo
EXTD=
EXTT0=
EXTT1=
EXTT2=
EXTT3=
EXTT4=
EXTT5=
EXTT6=
EXTT7=
EXTT8=
EXTT9=
EXTT10=
EXTT11=
EXTT12=
PLAYORDER=
